<svg width="1726" height="400" viewBox="0 0 1726 400" fill="none" xmlns="http://www.w3.org/2000/svg">
<path d="M724.436 234.125H620.772V196.738H765.653V355.226H725.264V307.207C696.751 365.755 608.794 369.967 556.841 340.761C457.251 290.395 457.735 115.095 557.048 63.9684C633.165 20.644 751.81 54.3024 764.79 149.133H717.221C692.022 46.1899 523.53 67.4206 528.155 201.813C523.15 347.286 717.463 358.367 724.436 234.09V234.125Z" fill="white"/>
<path fill-rule="evenodd" clip-rule="evenodd" d="M802.969 205.644C806.421 138.569 890.304 115.785 942.947 141.055C970.529 154.035 986.235 179.27 986.062 209.89V355.191H948.677V321.188C930.451 358.712 872.388 366.963 836.729 350.703C796.513 335.134 788.091 276.689 819.952 249.797C836.936 231.743 877.739 226.944 908.427 223.319C914.192 222.629 919.646 222.007 924.479 221.317C951.128 219.487 949.471 188.107 931.279 175.645C903.94 155.208 845.221 164.011 843.737 205.61H802.969V205.644ZM852.263 270.234C812.255 323.604 899.279 342.349 928.518 306.758C941.877 293.329 946.468 270.027 945.294 248.14C939.288 249.659 929.795 250.902 919.059 252.352C893.963 255.7 862.101 259.981 852.263 270.234Z" fill="white"/>
<path d="M1067.94 45.4651H1026.31V355.191H1067.94V45.4651Z" fill="white"/>
<path d="M1110.82 45.4651H1157.97V95.176H1110.82V45.4651Z" fill="white"/>
<path d="M1154.59 134.703H1112.96V355.226H1154.59V134.703Z" fill="white"/>
<path d="M1199.64 45.4651H1241.3V355.191H1199.64V45.4651Z" fill="white"/>
<path fill-rule="evenodd" clip-rule="evenodd" d="M1272.54 244.722C1270.23 380.772 1457.43 397.376 1479.46 284.25H1438.65C1433.23 310.693 1407.79 323.017 1381.32 322.914C1340.44 323.224 1316.35 293.363 1314.07 253.249H1479.84C1480.42 246.725 1480.7 241.063 1480.7 236.265C1479.84 89.6521 1268.47 100.423 1272.51 244.757H1272.54V244.722ZM1315.97 220.074C1324.63 148.511 1432.27 144.541 1436.13 220.074H1315.97Z" fill="white"/>
<path fill-rule="evenodd" clip-rule="evenodd" d="M1559.37 145.922C1634 103.046 1728.83 156.762 1725.93 244.723C1728.97 332.959 1634.24 386.882 1559.37 343.903C1488.71 304.617 1488.47 185.069 1559.37 145.922ZM1651.16 312.281C1562.27 360.507 1511.63 227.496 1581.05 177.578C1669.45 129.455 1721.58 262.397 1651.16 312.281Z" fill="white"/>
<path d="M125.727 11.9099L170.26 0C170.26 0 193.217 69.1119 195.219 93.1389C200.017 150.134 146.613 201.64 94.934 195.702C70.5618 192.871 0 170.26 0 170.26L11.9099 125.727L122.827 155.45L41.6329 74.2556L74.2556 41.6329L155.45 122.827L125.727 11.9099Z" fill="#E35454"/>
<path d="M400 170.26C400 170.26 329.473 192.906 305.031 195.702C253.387 201.64 199.983 150.099 204.747 93.1389C206.783 69.1119 229.706 0 229.706 0L274.238 11.9099L244.55 122.827L325.744 41.6329L358.332 74.2556L277.138 155.45L388.055 125.727L400 170.26Z" fill="#E35454"/>
<path d="M94.934 204.298C70.5273 207.094 0 229.74 0 229.74L11.9099 274.273L122.827 244.55L41.6329 325.744L74.2556 358.367L155.45 277.173L125.727 388.09L170.26 400C170.26 400 193.217 330.888 195.219 306.861C200.017 249.866 146.613 198.36 94.934 204.298Z" fill="#E35454"/>
<path d="M229.706 400C229.706 400 206.783 330.888 204.747 306.861C199.983 249.866 253.387 198.36 305.031 204.298C329.438 207.129 400 229.74 400 229.74L388.055 274.273L277.138 244.55L358.332 325.744L325.744 358.367L244.55 277.173L274.238 388.09L229.706 400Z" fill="#E35454"/>
</svg>
