<?xml version="1.0" encoding="UTF-8"?>
<svg xmlns="http://www.w3.org/2000/svg" xmlns:xlink="http://www.w3.org/1999/xlink" id="Layer_1" data-name="Layer 1" viewBox="0 0 234.7 66.88">
  <defs>
    <style>
      .cls-1 {
        fill: #f8b91e;
      }

      .cls-1, .cls-2, .cls-3 {
        stroke-width: 0px;
      }

      .cls-2 {
        fill: none;
      }

      .cls-4 {
        clip-path: url(#clippath-1);
      }

      .cls-5 {
        clip-path: url(#clippath);
      }

      .cls-3 {
        fill: #7b6c93;
      }
    </style>
    <clipPath id="clippath">
      <rect class="cls-2" width="234.7" height="66.88"></rect>
    </clipPath>
    <clipPath id="clippath-1">
      <rect class="cls-2" width="234.7" height="66.88"></rect>
    </clipPath>
  </defs>
  <g class="cls-5">
    <g class="cls-4">
      <path class="cls-3" d="M40.65,48.77l-5.5-6.98h-6.51v-6.43h9.47c2.03,0,3.47-1.4,3.47-3.51s-1.44-3.51-3.47-3.51h-11.59v20.42h-7.36v-27.48h18.94c6.3,0,10.87,4.14,10.87,10.27,0,4.19-2.2,7.48-5.62,9.13l6.93,8.08h-9.64Z"></path>
      <polygon class="cls-3" points="62.21 48.77 62.21 28.35 52.11 28.35 52.11 21.29 79.72 21.29 79.72 28.35 69.61 28.35 69.61 48.77 62.21 48.77"></polygon>
      <rect class="cls-3" x="80.2" y="32.66" width="10.36" height="5.33"></rect>
      <path class="cls-3" d="M118.05,48.77l-5.5-6.98h-6.51v-6.43h9.47c2.03,0,3.47-1.4,3.47-3.51s-1.44-3.51-3.47-3.51h-11.59v20.42h-7.36v-27.48h18.94c6.3,0,10.87,4.14,10.87,10.27,0,4.19-2.2,7.48-5.62,9.13l6.93,8.08h-9.64Z"></path>
      <path class="cls-3" d="M133.99,21.29h7.4v27.48h-7.4v-27.48ZM155.3,48.77l-11.25-11.54c-.68-.76-1.01-1.35-1.01-2.24v-.68c0-.8.34-1.56.97-2.24l10.87-10.78h9.47l-13.24,13.28,13.91,14.21h-9.73Z"></path>
      <path class="cls-3" d="M191.64,41.04c-2.18-3.73.22-7.86,5.25-9.26,4.88-1.34,10.5.37,12.77,3.82.66,1,1.03,1.98,1.13,2.92.25-.16.37-.26.64-.45,1.41-1,2.51-1.68,3.39-3.09,1.45-2.34.63-4.57-.65-6.43-1.86-2.7-6.69-4.36-13.17-4.7-4.66-.48-10.31-.06-16.3,1.42-3.93.97-6.68,1.96-10.13,3.37-.25.04-1.33.61-2.2.03-.22-.13-.33-.4-.29-.59.02-.5.8-.94.92-.97,3.67-1.5,6.3-2.44,10.65-3.49,17.02-4.11,33.35-2.6,37.43,3.09,2.97,4.14-.91,10.16-10.62,15.55-.89.5-2.11,1.02-2.11,1.02,0,0-.64.23-.98,0-.39-.29-.41-.76-.16-1.67.11-1.2-.17-1.98-.72-2.95-.62-1.07-1.5-1.92-2.69-2.41-1.35-.64-2.87-.71-4.31-.29-1.44.43-2.45,1.25-2.73,2.39-.33.97-.04,2.03.68,3.11.65.97,1.32,1.59,2.68,2.41,1.15.47,1.64.81,1.67,1.22.01.49-.64.49-1.29.49-3.86.11-7.11-1.55-8.86-4.54"></path>
      <path class="cls-1" d="M199.38,26.71c-.36-.26-1.04-.26-1.12-.24-2.88.31-4.9.61-8,1.42-13.64,3.54-23.81,11.14-21.11,16.47,1.96,3.87,10.47,5.38,21.16,3.81,1.19-.17,1.93-.35,2.32-.64.28-.2.4-.45.35-.65,0-.27-.25-.46-.29-.49-.18-.14-.49-.27-.96-.23-7.03.67-12.44-.96-14.26-4.33-2.47-4.6,3.58-10.05,13.51-12.67,2.81-.74,4.93-1.08,7.62-1.39.11.02,1.12-.07,1.02-.67,0-.14-.09-.29-.24-.38"></path>
    </g>
  </g>
</svg>
